# xmcd
#
# Track frame offsets:
#	150
#	14808
#	37380
#	57904
#	72516
#	92396
#	114523
#	126971
#	156869
#	180162
#
# Disc length: 2541 seconds
#
# Revision: 0
# Processed by: cddbd v1.4PL0 Copyright (c) Steve Scherf et al.
# Submitted via: audiograbber 1.80.04
#
DISCID=8809eb0a
DTITLE=Nick Gravenites - Kill My Brain
DYEAR=1999
DGENRE=Blues
TTITLE0=Kill My Brain
TTITLE1=Ran Out Of West
TTITLE2=Highway One
TTITLE3=Bad Talking Blues
TTITLE4=Get Together
TTITLE5=Didn't You Use To Be Somebody
TTITLE6=Four Floors Or Forty
TTITLE7=Your Heart's In The Wrong Place
TTITLE8=There's No Heaven
TTITLE9=I'm Gone
EXTD=
EXTT0=
EXTT1=
EXTT2=
EXTT3=
EXTT4=
EXTT5=
EXTT6=
EXTT7=
EXTT8=
EXTT9=
PLAYORDER=
